<svg version="1.1" xmlns="http://www.w3.org/2000/svg" xmlns:xlink="http://www.w3.org/1999/xlink" width="512.000000pt" height="512.000000pt" viewBox="0,0,256,256"><g fill="#f2eee7" fill-rule="nonzero" stroke="none" stroke-width="1" stroke-linecap="butt" stroke-linejoin="miter" stroke-miterlimit="10" stroke-dasharray="" stroke-dashoffset="0" font-family="none" font-weight="none" font-size="none" text-anchor="none" style="mix-blend-mode: normal"><g transform="translate(0.01145,0.00101) scale(0.5,0.5)"><g transform="translate(0,512) scale(0.1,-0.1)"><path d="M2394,4925c-76,-16 -167,-53 -242,-96c-43,-25 -314,-290 -1079,-1054c-1134,-1131 -1067,-1057 -1068,-1195c0,-91 26,-149 95,-214c87,-81 218,-98 325,-43c38,20 285,261 1035,1012c555,555 1001,995 1022,1006c21,10 56,19 78,19c22,0 57,-9 78,-19c21,-11 467,-451 1022,-1006c750,-751 997,-992 1035,-1012c107,-55 238,-38 325,43c67,63 95,123 95,209c0,135 9,123 -446,580l-409,411v451c0,299 -4,470 -11,505c-30,138 -142,228 -284,228c-118,0 -214,-61 -267,-169c-21,-42 -23,-62 -26,-234l-4,-189l-321,319c-330,326 -368,358 -497,410c-130,52 -319,68 -456,38z"></path><path d="M2510,3789c-30,-12 -1765,-1742 -1786,-1781c-12,-23 -14,-133 -14,-692c0,-441 4,-683 11,-718c29,-139 140,-289 265,-355c119,-63 121,-63 631,-63h463v650v650h480h480v-650v-650h463c510,0 512,0 631,63c125,66 236,216 265,355c7,35 11,277 11,718c0,559 -2,669 -14,692c-23,42 -1757,1770 -1789,1782c-34,12 -64,12 -97,-1z"></path></g></g></g></svg>