<svg version="1.1" xmlns="http://www.w3.org/2000/svg" xmlns:xlink="http://www.w3.org/1999/xlink" width="512.000000pt" height="512.000000pt" viewBox="0,0,256,256"><g fill="#ffffff" fill-rule="nonzero" stroke="none" stroke-width="1" stroke-linecap="butt" stroke-linejoin="miter" stroke-miterlimit="10" stroke-dasharray="" stroke-dashoffset="0" font-family="none" font-weight="none" font-size="none" text-anchor="none" style="mix-blend-mode: normal"><g transform="translate(0.10805,0.17679) scale(0.5,0.5)"><g transform="translate(0,512) scale(0.1,-0.1)"><path d="M2416,4960c-435,-55 -818,-327 -1006,-715c-268,-551 -107,-1217 383,-1586c63,-47 75,-60 60,-65c-69,-24 -223,-94 -298,-136c-504,-283 -870,-756 -1009,-1306c-58,-228 -82,-507 -53,-619c48,-183 193,-326 369,-362c37,-8 318,-11 905,-9c842,3 852,3 879,24c53,39 69,71 69,134c0,63 -16,95 -69,134c-27,21 -38,21 -886,26c-848,5 -859,5 -886,26c-72,53 -85,113 -65,301c31,291 123,553 279,793c162,250 395,460 662,599c259,134 462,185 805,201c139,7 218,16 295,34c498,114 862,492 976,1011c24,110 24,369 0,480c-57,262 -174,483 -351,661c-184,185 -409,306 -668,359c-95,19 -297,27 -391,15zM2791,4611c175,-45 317,-127 445,-255c130,-129 209,-269 256,-449c32,-121 32,-339 0,-457c-50,-185 -123,-310 -257,-445c-177,-177 -375,-266 -621,-282c-405,-25 -793,221 -943,598c-53,133 -65,199 -65,359c0,153 17,246 66,365c63,149 197,320 322,409c115,82 260,145 401,172c96,19 296,11 396,-15z"></path><path d="M3695,2226c-37,-17 -70,-52 -84,-89c-7,-18 -11,-138 -11,-322v-294l-309,-3c-295,-3 -311,-4 -337,-24c-53,-39 -69,-71 -69,-134c0,-63 16,-95 69,-134c26,-20 42,-21 336,-24l309,-3l3,-309c3,-294 4,-310 24,-336c39,-53 71,-69 134,-69c63,0 95,16 134,69c20,26 21,42 24,336l3,309l309,3c294,3 310,4 336,24c53,39 69,71 69,134c0,63 -16,95 -69,134c-26,20 -42,21 -336,24l-309,3l-3,309c-3,294 -4,310 -24,336c-11,15 -32,37 -46,47c-34,25 -113,32 -153,13z"></path></g></g></g></svg>