<svg version="1.1" xmlns="http://www.w3.org/2000/svg" xmlns:xlink="http://www.w3.org/1999/xlink" width="512.000000pt" height="512.000000pt" viewBox="0,0,256,256"><g fill="#f2eee7" fill-rule="nonzero" stroke="none" stroke-width="1" stroke-linecap="butt" stroke-linejoin="miter" stroke-miterlimit="10" stroke-dasharray="" stroke-dashoffset="0" font-family="none" font-weight="none" font-size="none" text-anchor="none" style="mix-blend-mode: normal"><g transform="translate(-0.1125,-0.09062) scale(0.5,0.5)"><g transform="translate(0,512) scale(0.1,-0.1)"><path d="M740,5113c-201,-34 -381,-193 -443,-388l-22,-70v-1775v-1775l26,-71c33,-90 88,-173 153,-230c44,-39 1100,-659 1268,-745c71,-36 164,-59 240,-59c183,0 385,112 477,265c65,108 75,150 81,360l5,190l465,5c449,5 467,6 523,27c188,71 321,225 362,418c18,85 22,716 5,777c-22,79 -91,131 -175,131c-80,0 -138,-40 -170,-115c-12,-31 -15,-94 -15,-380c0,-311 -2,-347 -19,-383c-22,-50 -69,-91 -119,-105c-23,-6 -197,-10 -449,-10h-413v1268c0,1393 3,1317 -61,1445c-20,39 -58,88 -103,132c-65,64 -119,97 -636,395l-566,325l1115,3l1116,2l44,-27c28,-18 53,-44 68,-72c23,-44 23,-45 23,-435c0,-358 2,-394 19,-431c57,-126 217,-149 305,-45c45,54 48,84 44,519c-3,394 -4,408 -26,471c-32,89 -66,145 -130,212c-65,69 -130,112 -220,147l-67,26l-1340,1c-737,1 -1351,0 -1365,-3z"></path><path d="M4110,3661c-89,-28 -140,-92 -140,-175c0,-72 19,-102 139,-221l111,-110l-709,-5l-709,-5l-39,-31c-49,-40 -73,-87 -73,-148c0,-66 37,-128 93,-159l42,-22l693,-5l692,-5l-101,-100c-55,-55 -109,-117 -120,-137c-21,-41 -25,-111 -8,-155c23,-61 100,-113 169,-113c70,0 108,31 397,321c234,236 283,291 292,324c14,50 14,60 0,110c-9,33 -58,87 -283,313c-149,151 -289,284 -311,297c-46,27 -99,37 -135,26z"></path></g></g></g></svg>