<svg version="1.1" xmlns="http://www.w3.org/2000/svg" xmlns:xlink="http://www.w3.org/1999/xlink" width="512.000000pt" height="512.000000pt" viewBox="0,0,256,256"><g fill="#f2eee7" fill-rule="nonzero" stroke="none" stroke-width="1" stroke-linecap="butt" stroke-linejoin="miter" stroke-miterlimit="10" stroke-dasharray="" stroke-dashoffset="0" font-family="none" font-weight="none" font-size="none" text-anchor="none" style="mix-blend-mode: normal"><g transform="translate(0,-0.01628) scale(0.5,0.5)"><g transform="translate(0,512) scale(0.1,-0.1)"><path d="M255,4866c-102,-25 -171,-81 -217,-174l-33,-67v-2065v-2065l26,-56c47,-100 129,-165 237,-188c75,-16 4509,-16 4584,0c108,23 190,88 237,188l26,56v2065v2065l-26,56c-47,100 -129,165 -237,188c-80,17 -4528,14 -4597,-3zM4833,4666c18,-7 43,-26 57,-40c25,-28 25,-28 28,-257l3,-229h-2361h-2361l3,229c3,229 3,229 28,256c53,58 -100,54 2328,55c1878,0 2248,-2 2275,-14zM4920,2243c0,-1665 0,-1699 -20,-1730c-10,-18 -31,-40 -47,-50c-26,-17 -128,-18 -2273,-21c-1508,-2 -2257,0 -2280,7c-20,6 -49,24 -65,41l-30,31l-3,1710l-2,1709h2360h2360z"></path><path d="M484,4484c-60,-29 -73,-107 -25,-155c38,-38 87,-39 129,-4c56,47 51,118 -10,155c-39,24 -53,24 -94,4z"></path><path d="M862,4480c-41,-25 -56,-59 -48,-104c8,-44 47,-76 93,-76c45,0 69,14 89,52c45,87 -51,180 -134,128z"></path><path d="M1270,4489c-61,-24 -85,-85 -54,-137c34,-59 108,-70 155,-23c39,40 40,89 2,130c-32,33 -67,43 -103,30z"></path><path d="M3665,3549c-86,-13 -201,-54 -275,-97c-36,-20 -105,-77 -155,-127c-109,-108 -172,-219 -206,-361c-28,-116 -23,-292 11,-399c78,-248 268,-437 515,-515c146,-46 360,-37 510,22c171,67 336,227 415,402c68,150 84,350 41,509c-70,265 -286,481 -547,547c-91,24 -228,32 -309,19zM3680,3048v-302l213,-213c173,-174 209,-216 197,-224c-8,-6 -37,-21 -65,-34c-165,-79 -367,-72 -527,18c-323,181 -387,625 -128,888c36,36 88,79 115,95c43,25 165,73 188,74c4,0 7,-136 7,-302zM4040,3292c79,-38 207,-168 247,-252c82,-170 78,-357 -10,-523l-30,-58l-184,183l-183,183v262v262l53,-16c28,-8 77,-27 107,-41z"></path><path d="M1687,3209c-48,-28 -47,-18 -47,-814v-745h-125h-125v423c0,382 -2,425 -18,457c-26,54 -54,59 -327,59c-271,1 -307,-5 -335,-52c-19,-30 -20,-54 -20,-458v-426l-62,-6c-55,-5 -67,-10 -92,-38c-24,-27 -27,-38 -23,-73c4,-27 15,-49 32,-63l26,-23h969h969l26,23c17,14 28,36 32,63c5,36 1,46 -24,74c-29,32 -34,34 -116,38l-87,5v744c0,798 1,786 -49,813c-26,14 -580,13 -604,-1zM2140,2335v-685h-150h-150v685v685h150h150zM1188,2018l2,-368h-150h-150v363c0,200 3,367 7,371c4,3 70,5 147,4l141,-3z"></path><path d="M3064,1634c-60,-29 -73,-107 -25,-155l29,-29h707c787,0 744,-4 766,69c15,50 -8,97 -56,117c-53,22 -1376,20 -1421,-2z"></path><path d="M545,1057c-17,-14 -28,-36 -32,-63c-5,-36 -1,-46 25,-75c25,-28 37,-34 72,-34c72,0 121,76 89,138c-30,59 -106,76 -154,34z"></path><path d="M1007,1055c-34,-34 -40,-67 -23,-110c29,-70 -97,-65 1776,-65c1858,0 1742,-4 1775,61c14,27 15,39 6,70c-23,75 138,69 -1784,69h-1724z"></path></g></g></g></svg>